<svg xmlns="http://www.w3.org/2000/svg" viewBox="0 0 512 512" width="512" height="512" role="img" aria-label="angel-crimson sad mood portrait">
  <g id="base-portrait">

  <defs>
    <radialGradient id="bg" cx="50%" cy="22%" r="76%"><stop offset="0" stop-color="#fff9e8"/><stop offset=".48" stop-color="#be6978"/><stop offset="1" stop-color="#17101c"/></radialGradient>
    <linearGradient id="robe" x1="0" x2="1" y1="0" y2="1"><stop offset="0" stop-color="#fff7f0"/><stop offset="1" stop-color="#7a2443"/></linearGradient>
  </defs>
  <rect width="512" height="512" fill="url(#bg)"/>
  <ellipse cx="256" cy="77" rx="84" ry="19" fill="none" stroke="#fff3a8" stroke-width="11"/>
  <path d="M98 506c-17-88 19-143 91-172-46 8-90 36-133 84 2-82 48-145 135-195zM414 506c17-88-19-143-91-172 46 8 90 36 133 84-2-82-48-145-135-195z" fill="#fff7f0" opacity=".82"/>
  <path d="M107 510c18-103 75-158 149-158s131 55 149 158z" fill="url(#robe)"/>
  <path d="M199 353c27 29 87 29 114 0l-11 69c-27 21-65 21-92 0z" fill="#f1d0b7"/>
  <path d="M156 191c-7-80 37-132 100-132s107 52 100 132c9 85-34 164-100 164s-109-79-100-164z" fill="#f1d0b7"/>
  <path d="M155 199c9-89 47-139 101-139 62 0 99 51 105 136-37-9-76-37-102-83-22 42-55 70-104 86z" fill="#f8e7a6"/>
  <path d="M188 243c21-16 44-16 65 0M279 243c21-16 44-16 65 0" stroke="#7b5548" stroke-width="8" stroke-linecap="round" fill="none"/>
  <ellipse cx="224" cy="268" rx="15" ry="19" fill="#fff"/><ellipse cx="309" cy="268" rx="15" ry="19" fill="#fff"/>
  <ellipse cx="224" cy="270" rx="8" ry="13" fill="#ff8fb8"/><ellipse cx="309" cy="270" rx="8" ry="13" fill="#ff8fb8"/>
  <path d="M260 281c-8 22-5 33 13 34" stroke="#b7816a" stroke-width="4" stroke-linecap="round" fill="none"/>
  <path d="M225 328c20 18 54 18 74 0" stroke="#a85872" stroke-width="7" stroke-linecap="round" fill="none"/>
  <ellipse cx="198" cy="307" rx="24" ry="11" fill="#ff9fc6" opacity=".36"/><ellipse cx="327" cy="307" rx="24" ry="11" fill="#ff9fc6" opacity=".36"/>
  <path d="M180 415c38 31 114 31 152 0" stroke="#fff3a8" stroke-width="9" stroke-linecap="round" fill="none"/>

  </g>
  <g id="mood-sad" opacity="0.9">
    <path d="M204 250c20-10 39-6 56 9M278 259c17-15 37-19 56-9" fill="none" stroke="#365071" stroke-width="8" stroke-linecap="round"/>
    <path d="M226 334c21-14 55-14 76 0" fill="none" stroke="#5f3146" stroke-width="8" stroke-linecap="round"/>
    <path d="M318 286c-7 18-5 32 5 43" fill="none" stroke="#8bdcff" stroke-width="5" stroke-linecap="round" opacity="0.72"/>
    <rect width="512" height="512" fill="#557399" opacity="0.12"/>
  </g></svg>

