<svg xmlns="http://www.w3.org/2000/svg" viewBox="0 0 512 512" width="512" height="512" role="img" aria-label="angel happy mood portrait">
  <g id="base-portrait">

  <defs>
    <radialGradient id="bg" cx="50%" cy="22%" r="76%">
      <stop offset="0" stop-color="#ffffff"/>
      <stop offset="0.5" stop-color="#9ad1ff"/>
      <stop offset="1" stop-color="#12142b"/>
    </radialGradient>
    <linearGradient id="robe" x1="0" x2="1" y1="0" y2="1">
      <stop offset="0" stop-color="#ffffff"/>
      <stop offset="1" stop-color="#bde6ff"/>
    </linearGradient>
  </defs>
  <rect width="512" height="512" fill="url(#bg)"/>
  <ellipse cx="256" cy="78" rx="88" ry="20" fill="none" stroke="#fff3a8" stroke-width="12"/>
  <path d="M105 504c-20-93 17-148 88-174-46 6-91 35-136 87 1-88 47-155 133-202zM407 504c20-93-17-148-88-174 46 6 91 35 136 87-1-88-47-155-133-202z" fill="#f7fbff" opacity=".88"/>
  <path d="M109 510c18-103 74-158 147-158s129 55 147 158z" fill="url(#robe)"/>
  <path d="M198 352c28 29 88 29 116 0l-11 70c-28 21-66 21-94 0z" fill="#f1d0b7"/>
  <path d="M155 191c-7-79 37-131 101-131s108 52 101 131c9 84-34 164-101 164s-110-80-101-164z" fill="#f1d0b7"/>
  <path d="M154 198c9-88 46-137 102-137 62 0 100 50 106 135-36-8-77-37-103-85-22 42-55 70-105 87z" fill="#f8e7a6"/>
  <path d="M187 242c21-16 45-16 66 0M278 242c21-16 45-16 66 0" fill="none" stroke="#7b6640" stroke-width="8" stroke-linecap="round"/>
  <ellipse cx="224" cy="267" rx="15" ry="19" fill="#fff"/>
  <ellipse cx="309" cy="267" rx="15" ry="19" fill="#fff"/>
  <ellipse cx="224" cy="269" rx="8" ry="13" fill="#9ad1ff"/>
  <ellipse cx="309" cy="269" rx="8" ry="13" fill="#9ad1ff"/>
  <circle cx="229" cy="263" r="3" fill="#fff"/>
  <circle cx="314" cy="263" r="3" fill="#fff"/>
  <path d="M260 280c-8 22-5 33 13 34" fill="none" stroke="#b7816a" stroke-width="4" stroke-linecap="round"/>
  <path d="M225 327c20 18 54 18 74 0" fill="none" stroke="#a85872" stroke-width="7" stroke-linecap="round"/>
  <ellipse cx="198" cy="306" rx="24" ry="11" fill="#ff9fc6" opacity=".35"/>
  <ellipse cx="327" cy="306" rx="24" ry="11" fill="#ff9fc6" opacity=".35"/>
  <path d="M181 414c37 31 113 31 150 0" fill="none" stroke="#fff3a8" stroke-width="9" stroke-linecap="round"/>

  </g>
  <g id="mood-happy" opacity="0.92">
    <path d="M222 326c22 24 64 24 86 0" fill="none" stroke="#fff6fb" stroke-width="9" stroke-linecap="round"/>
    <path d="M224 324c20 17 62 17 82 0" fill="none" stroke="#9b315a" stroke-width="5" stroke-linecap="round"/>
    <ellipse cx="196" cy="306" rx="28" ry="12" fill="#ff8fb8" opacity="0.42"/>
    <ellipse cx="330" cy="306" rx="28" ry="12" fill="#ff8fb8" opacity="0.42"/>
  </g></svg>

