<svg xmlns="http://www.w3.org/2000/svg" viewBox="0 0 512 512" width="512" height="512" role="img" aria-label="goblin-bravado angry mood portrait">
  <g id="base-portrait">

  <defs><radialGradient id="bg" cx="50%" cy="25%" r="76%"><stop offset="0" stop-color="#f2ff95"/><stop offset=".5" stop-color="#496128"/><stop offset="1" stop-color="#080b07"/></radialGradient></defs>
  <rect width="512" height="512" fill="url(#bg)"/>
  <path d="M101 510c15-95 75-152 155-152s140 57 155 152z" fill="#10180d"/>
  <path d="M161 510c11-79 47-125 95-125s84 46 95 125z" fill="#322018"/>
  <path d="M113 213l-83-42c-15-8-14-30 2-36l126-45zM399 213l83-42c15-8 14-30-2-36L354 90z" fill="#86c861"/>
  <path d="M153 199c-8-82 38-136 103-136s111 54 103 136c10 84-34 159-103 159s-113-75-103-159z" fill="#86c861"/>
  <path d="M164 182c29-73 151-85 188 7-51-12-91-31-121-57-16 25-39 42-67 50z" fill="#172810"/>
  <path d="M180 249c27-22 61-19 83 5M281 254c22-24 56-27 84-5" stroke="#111a0b" stroke-width="10" stroke-linecap="round" fill="none"/>
  <ellipse cx="224" cy="272" rx="22" ry="18" fill="#ffe66d"/><ellipse cx="315" cy="272" rx="22" ry="18" fill="#ffe66d"/>
  <ellipse cx="230" cy="272" rx="8" ry="15" fill="#0b1005"/><ellipse cx="309" cy="272" rx="8" ry="15" fill="#0b1005"/>
  <path d="M258 281c-10 24-7 36 14 40" stroke="#426f33" stroke-width="5" stroke-linecap="round" fill="none"/>
  <path d="M218 333c25 23 69 23 94 0" stroke="#111a0b" stroke-width="8" stroke-linecap="round" fill="none"/>
  <path d="M232 341l8 28M286 341l-8 28" stroke="#f4f0d0" stroke-width="7" stroke-linecap="round" fill="none"/>
  <path d="M178 417c39 31 117 31 156 0" stroke="#d2f06d" stroke-width="9" stroke-linecap="round" fill="none"/>

  </g>
  <g id="mood-angry" opacity="0.94">
    <path d="M198 240c24 5 44 16 61 31M335 240c-24 5-44 16-61 31" fill="none" stroke="#18220e" stroke-width="10" stroke-linecap="round"/>
    <path d="M226 334c24 8 52 8 76 0" fill="none" stroke="#641926" stroke-width="9" stroke-linecap="round"/>
    <path d="M232 337l10 19M292 337l-10 19" fill="none" stroke="#fff2d2" stroke-width="5" stroke-linecap="round" opacity="0.8"/>
    <rect width="512" height="512" fill="#ff3b3b" opacity="0.11"/>
  </g></svg>

