<svg xmlns="http://www.w3.org/2000/svg" viewBox="0 0 256 256"><use href="moleman.svg#root"/><rect width="256" height="256" fill="#201711"/><ellipse cx="128" cy="142" rx="78" ry="86" fill="#7b5a3a"/><ellipse cx="99" cy="115" rx="18" ry="24" fill="#fff4be"/><ellipse cx="154" cy="115" rx="18" ry="24" fill="#fff4be"/><circle cx="104" cy="119" r="8"/><circle cx="149" cy="119" r="8"/><ellipse cx="128" cy="143" rx="18" ry="12" fill="#3d2619"/><path d="M91 162c21 28 58 31 76 0" fill="none" stroke="#2a1a12" stroke-width="8" stroke-linecap="round"/><path d="M52 190c-18 18-20 36-6 46 18-2 33-15 44-39zM204 190c18 18 20 36 6 46-18-2-33-15-44-39z" fill="#b79662"/><path d="M76 54c24-22 72-26 104 4" fill="none" stroke="#3b2a1d" stroke-width="18" stroke-linecap="round"/></svg>
